# Rhino

g object_1
v 881.7142944335938 2342.34765625 900.4277954101562
v 881.7142944335938 2333.862548828125 891.9425048828125
v 1136.98681640625 2342.34765625 900.4277954101562
v 1136.98681640625 2333.862548828125 891.9425048828125
v 1136.98681640625 2342.34765625 900.4277954101562
v 1136.98681640625 2333.862548828125 891.9425048828125
v 1124.98681640625 2330.34765625 912.4277954101562
v 1124.98681640625 2321.862548828125 903.9425048828125
v 371.1693115234375 1576.5302734375 1666.245239257812
v 371.1693115234375 1568.045043945312 1657.759887695312
v 359.1693115234375 1564.5302734375 1678.245239257812
v 359.1693115234375 1556.045043945312 1669.759887695312
v 359.1693115234375 1564.5302734375 1678.245239257812
v 359.1693115234375 1556.045043945312 1669.759887695312
v 359.1693115234375 1953.439086914062 1289.336547851562
v 359.1693115234375 1944.953735351562 1280.851196289062
v 359.1693115234375 1953.439086914062 1289.336547851562
v 359.1693115234375 1944.953735351562 1280.851196289062
v 371.1693115234375 1953.439086914062 1289.336547851562
v 371.1693115234375 1944.953735351562 1280.851196289062
v 371.1693115234375 1953.439086914062 1289.336547851562
v 371.1693115234375 1944.953735351562 1280.851196289062
v 371.1693115234375 2330.34765625 912.4277954101562
v 371.1693115234375 2321.862548828125 903.9425048828125
v 371.1693115234375 2342.34765625 900.4277954101562
v 371.1693115234375 2333.862548828125 891.9425048828125
v 371.1693115234375 2342.34765625 900.4277954101562
v 371.1693115234375 2333.862548828125 891.9425048828125
v 626.4417724609375 2342.34765625 900.4277954101562
v 626.4417724609375 2333.862548828125 891.9425048828125
v 626.4417724609375 2342.34765625 900.4277954101562
v 626.4417724609375 2333.862548828125 891.9425048828125
v 626.4417724609375 2330.34765625 912.4277954101562
v 626.4417724609375 2321.862548828125 903.9425048828125
v 626.4417724609375 2330.34765625 912.4277954101562
v 626.4417724609375 2321.862548828125 903.9425048828125
v 754.0780029296875 2330.34765625 912.4277954101562
v 754.0780029296875 2321.862548828125 903.9425048828125
v 881.7142944335938 2330.34765625 912.4277954101562
v 881.7142944335938 2321.862548828125 903.9425048828125
v 881.7142944335938 2330.34765625 912.4277954101562
v 881.7142944335938 2321.862548828125 903.9425048828125
v 881.7142944335938 2342.34765625 900.4277954101562
v 881.7142944335938 2333.862548828125 891.9425048828125
v 881.7142944335938 2342.34765625 900.4277954101562
v 1136.98681640625 2342.34765625 900.4277954101562
v 1124.98681640625 2330.34765625 912.4277954101562
v 371.1693115234375 1576.5302734375 1666.245239257812
v 359.1693115234375 1564.5302734375 1678.245239257812
v 359.1693115234375 1953.439086914062 1289.336547851562
v 371.1693115234375 1953.439086914062 1289.336547851562
v 371.1693115234375 2330.34765625 912.4277954101562
v 371.1693115234375 2342.34765625 900.4277954101562
v 626.4417724609375 2342.34765625 900.4277954101562
v 626.4417724609375 2330.34765625 912.4277954101562
v 754.0780029296875 2330.34765625 912.4277954101562
v 881.7142944335938 2330.34765625 912.4277954101562
v 881.7142944335938 2333.862548828125 891.9425048828125
v 1136.98681640625 2333.862548828125 891.9425048828125
v 1124.98681640625 2321.862548828125 903.9425048828125
v 371.1693115234375 1568.045043945312 1657.759887695312
v 359.1693115234375 1556.045043945312 1669.759887695312
v 359.1693115234375 1944.953735351562 1280.851196289062
v 371.1693115234375 1944.953735351562 1280.851196289062
v 371.1693115234375 2321.862548828125 903.9425048828125
v 371.1693115234375 2333.862548828125 891.9425048828125
v 626.4417724609375 2333.862548828125 891.9425048828125
v 626.4417724609375 2321.862548828125 903.9425048828125
v 754.0780029296875 2321.862548828125 903.9425048828125
v 881.7142944335938 2321.862548828125 903.9425048828125
vt 0 0
vt 0 0.5047519207000732
vt 0.07692307978868484 0
vt 0.07692307978868484 0.5047519207000732
vt 0.07692307978868484 0
vt 0.07692307978868484 0.5047519207000732
vt 0.1538461595773697 0
vt 0.1538461595773697 0.5047519207000732
vt 0.2307692319154739 0
vt 0.2307692319154739 0.5047519207000732
vt 0.3076923191547394 0
vt 0.3076923191547394 0.5047519207000732
vt 0.3076923191547394 0
vt 0.3076923191547394 0.5047519207000732
vt 0.3846153914928436 0
vt 0.3846153914928436 0.5047519207000732
vt 0.3846153914928436 0
vt 0.3846153914928436 0.5047519207000732
vt 0.4615384638309479 0
vt 0.4615384638309479 0.5047519207000732
vt 0.4615384638309479 0
vt 0.4615384638309479 0.5047519207000732
vt 0.5384615659713745 0
vt 0.5384615659713745 0.5047519207000732
vt 0.6153846383094788 0
vt 0.6153846383094788 0.5047519207000732
vt 0.6153846383094788 0
vt 0.6153846383094788 0.5047519207000732
vt 0.692307710647583 0
vt 0.692307710647583 0.5047519207000732
vt 0.692307710647583 0
vt 0.692307710647583 0.5047519207000732
vt 0.7692307829856873 0
vt 0.7692307829856873 0.5047519207000732
vt 0.7692307829856873 0
vt 0.7692307829856873 0.5047519207000732
vt 0.8461538553237915 0
vt 0.8461538553237915 0.5047519207000732
vt 0.9230769276618958 0
vt 0.9230769276618958 0.5047519207000732
vt 0.9230769276618958 0
vt 0.9230769276618958 0.5047519207000732
vt 1 0
vt 1 0.5047519207000732
vt 0.3681637942790985 0.6698349714279175
vt 0.4133870601654053 0.5047524571418762
vt 0.4070094227790833 0.5047524571418762
vt 0.006377646699547768 0.5047524571418762
vt 0 0.5047524571418762
vt 0.1377956867218018 0.7562563419342041
vt 0.1399215757846832 0.7484960556030273
vt 0.2734655141830444 0.9922397136688232
vt 0.277717262506485 1
vt 0.3229405283927917 0.8349174857139587
vt 0.3186887800693512 0.827157199382782
vt 0.3413003981113434 0.744615912437439
vt 0.363912045955658 0.6620746850967407
vt 0.3681637942790985 0.8349174857139587
vt 0.4133870601654053 1
vt 0.4070094227790833 1
vt 0.006377646699547768 1
vt 0 1
vt 0.1377956867218018 0.7484960556030273
vt 0.1399215757846832 0.7562563419342041
vt 0.2734655141830444 0.512512743473053
vt 0.277717262506485 0.5047524571418762
vt 0.3229405283927917 0.6698349714279175
vt 0.3186887800693512 0.6775952577590942
vt 0.3413003981113434 0.7601365447044373
vt 0.363912045955658 0.8426777720451355
vn 6.476238816055524e-13 0.7071067690849304 -0.7071067690849304
vn 6.476238816055524e-13 0.7071067690849304 -0.7071067690849304
vn 6.476238816055524e-13 0.7071067690849304 -0.7071067690849304
vn 6.476238816055524e-13 0.7071067690849304 -0.7071067690849304
vn 0.8164966106414795 -0.4082483053207397 0.4082483053207397
vn 0.8164966106414795 -0.4082483053207397 0.4082483053207397
vn 0.8164966106414795 -0.4082483053207397 0.4082483053207397
vn 0.8164966106414795 -0.4082483053207397 0.4082483053207397
vn 0.8164966106414795 -0.4082483053207397 0.4082483053207397
vn 0.8164966106414795 -0.4082483053207397 0.4082483053207397
vn 0.8164966106414795 -0.4082483053207397 0.4082483053207397
vn 0.8164966106414795 -0.4082483053207397 0.4082483053207397
vn -1 -1.706755938836457e-12 -2.044718344293428e-12
vn -1 -1.706755938836457e-12 -2.044718344293428e-12
vn -1 -1.706755938836457e-12 -2.044718344293428e-12
vn -1 -1.706755938836457e-12 -2.044718344293428e-12
vn -2.602467503651229e-12 0.7071067690849304 -0.7071067690849304
vn -2.602467503651229e-12 0.7071067690849304 -0.7071067690849304
vn -2.602467503651229e-12 0.7071067690849304 -0.7071067690849304
vn -2.602467503651229e-12 0.7071067690849304 -0.7071067690849304
vn -1 -1.826161400916848e-12 -1.92531277379282e-12
vn -1 -1.826161400916848e-12 -1.92531277379282e-12
vn -1 -1.916127846668392e-12 -1.835346544881711e-12
vn -1 -1.916127846668392e-12 -1.835346544881711e-12
vn -1 -1.916127846668392e-12 -1.835346544881711e-12
vn -1 -1.916127846668392e-12 -1.835346544881711e-12
vn -2.054779957294528e-12 0.7071067690849304 -0.7071067690849304
vn -2.054779957294528e-12 0.7071067690849304 -0.7071067690849304
vn -2.054779957294528e-12 0.7071067690849304 -0.7071067690849304
vn -2.054779957294528e-12 0.7071067690849304 -0.7071067690849304
vn 1 5.876646825414555e-12 -2.125172433864453e-12
vn 1 5.876646825414555e-12 -2.125172433864453e-12
vn 1 5.876646825414555e-12 -2.125172433864453e-12
vn 1 5.876646825414555e-12 -2.125172433864453e-12
vn -2.101215468980344e-12 0.7071067690849304 -0.7071067690849304
vn -2.101215468980344e-12 0.7071067690849304 -0.7071067690849304
vn -1.91508094105064e-12 0.7071067690849304 -0.7071067690849304
vn -1.91508094105064e-12 0.7071067690849304 -0.7071067690849304
vn -1.91508094105064e-12 0.7071067690849304 -0.7071067690849304
vn -1.91508094105064e-12 0.7071067690849304 -0.7071067690849304
vn -1 -4.606873910129039e-12 8.553994643688279e-13
vn -1 -4.606873910129039e-12 8.553994643688279e-13
vn -1 -4.606873910129039e-12 8.553994643688279e-13
vn -1 -4.606873910129039e-12 8.553994643688279e-13
vn -2.652692952451186e-12 0.7071067690849304 0.7071067690849304
vn -2.652692952451186e-12 0.7071067690849304 0.7071067690849304
vn -2.652692952451186e-12 0.7071067690849304 0.7071067690849304
vn -2.652692952451186e-12 0.7071067690849304 0.7071067690849304
vn -2.652692952451186e-12 0.7071067690849304 0.7071067690849304
vn -2.652692952451186e-12 0.7071067690849304 0.7071067690849304
vn -2.652692952451186e-12 0.7071067690849304 0.7071067690849304
vn -2.652692952451186e-12 0.7071067690849304 0.7071067690849304
vn -2.652692952451186e-12 0.7071067690849304 0.7071067690849304
vn -2.652692952451186e-12 0.7071067690849304 0.7071067690849304
vn -2.652692952451186e-12 0.7071067690849304 0.7071067690849304
vn -2.652692952451186e-12 0.7071067690849304 0.7071067690849304
vn -2.652692952451186e-12 0.7071067690849304 0.7071067690849304
vn 2.652692952451186e-12 -0.7071067690849304 -0.7071067690849304
vn 2.652692952451186e-12 -0.7071067690849304 -0.7071067690849304
vn 2.652692952451186e-12 -0.7071067690849304 -0.7071067690849304
vn 2.652692952451186e-12 -0.7071067690849304 -0.7071067690849304
vn 2.652692952451186e-12 -0.7071067690849304 -0.7071067690849304
vn 2.652692952451186e-12 -0.7071067690849304 -0.7071067690849304
vn 2.652692952451186e-12 -0.7071067690849304 -0.7071067690849304
vn 2.652692952451186e-12 -0.7071067690849304 -0.7071067690849304
vn 2.652692952451186e-12 -0.7071067690849304 -0.7071067690849304
vn 2.652692952451186e-12 -0.7071067690849304 -0.7071067690849304
vn 2.652692952451186e-12 -0.7071067690849304 -0.7071067690849304
vn 2.652692952451186e-12 -0.7071067690849304 -0.7071067690849304
vn 2.652692952451186e-12 -0.7071067690849304 -0.7071067690849304
f 1/1/1 3/3/3 4/4/4 2/2/2
f 5/5/5 7/7/7 8/8/8 6/6/6
f 7/7/7 9/9/9 10/10/10 8/8/8
f 9/9/9 11/11/11 12/12/12 10/10/10
f 13/13/13 15/15/15 16/16/16 14/14/14
f 17/17/17 19/19/19 20/20/20 18/18/18
f 21/21/21 23/23/23 24/24/24 22/22/22
f 23/23/23 25/25/25 26/26/26 24/24/24
f 27/27/27 29/29/29 30/30/30 28/28/28
f 31/31/31 33/33/33 34/34/34 32/32/32
f 35/35/35 37/37/37 38/38/38 36/36/36
f 37/37/37 39/39/39 40/40/40 38/38/38
f 41/41/41 43/43/43 44/44/44 42/42/42
f 54/54/54 53/53/53 52/52/52
f 55/55/55 54/54/54 52/52/52
f 55/55/55 52/52/52 51/51/51
f 48/48/48 51/51/51 50/50/50
f 51/51/51 56/56/56 55/55/55
f 47/47/47 46/46/46 45/45/45
f 57/57/57 47/47/47 45/45/45
f 57/57/57 51/51/51 47/47/47
f 48/48/48 50/50/50 49/49/49
f 51/51/51 48/48/48 47/47/47
f 57/57/57 56/56/56 51/51/51
f 67/67/67 65/65/65 66/66/66
f 68/68/68 65/65/65 67/67/67
f 68/68/68 64/64/64 65/65/65
f 61/61/61 63/63/63 64/64/64
f 64/64/64 68/68/68 69/69/69
f 60/60/60 58/58/58 59/59/59
f 70/70/70 58/58/58 60/60/60
f 70/70/70 60/60/60 64/64/64
f 61/61/61 62/62/62 63/63/63
f 64/64/64 60/60/60 61/61/61
f 70/70/70 64/64/64 69/69/69
