# Rhino

g object_1
v 63.96521377563477 52.33432388305664 26.81347274780273
v 63.73283767700195 52.33432388305664 26.58109855651855
v 63.6365852355957 52.33432388305664 27.1421012878418
v 63.40420913696289 52.33432388305664 26.90972709655762
v 63.6365852355957 52.33432388305664 27.1421012878418
v 63.40420913696289 52.33432388305664 26.90972709655762
v 63.6365852355957 48.83891296386719 27.1421012878418
v 63.40420913696289 48.83891296386719 26.90972709655762
v 63.6365852355957 45.343505859375 27.1421012878418
v 63.40420913696289 45.343505859375 26.90972709655762
v 63.6365852355957 45.343505859375 27.1421012878418
v 63.40420913696289 45.343505859375 26.90972709655762
v 63.96521377563477 45.343505859375 26.81347274780273
v 63.73283767700195 45.343505859375 26.58109855651855
v 63.96521377563477 45.343505859375 26.81347274780273
v 63.73283767700195 45.343505859375 26.58109855651855
v 63.96521377563477 38.35268783569336 26.81347274780273
v 63.73283767700195 38.35268783569336 26.58109855651855
v 63.96521377563477 38.35268783569336 26.81347274780273
v 63.73283767700195 38.35268783569336 26.58109855651855
v 63.6365852355957 38.35268783569336 27.1421012878418
v 63.40420913696289 38.35268783569336 26.90972709655762
v 53.31467437744141 38.35268783569336 37.46401214599609
v 53.08229827880859 38.35268783569336 37.23163604736328
v 53.31467437744141 38.35268783569336 37.46401214599609
v 53.08229827880859 38.35268783569336 37.23163604736328
v 53.31467437744141 38.0240592956543 37.46401214599609
v 53.08229827880859 38.0240592956543 37.23163604736328
v 53.31467437744141 38.0240592956543 37.46401214599609
v 53.08229827880859 38.0240592956543 37.23163604736328
v 42.66413497924805 38.0240592956543 48.11455154418945
v 42.43175888061523 38.0240592956543 47.88217544555664
v 42.66413497924805 38.0240592956543 48.11455154418945
v 42.43175888061523 38.0240592956543 47.88217544555664
v 42.99276351928711 38.35268783569336 47.78592300415039
v 42.7603874206543 38.35268783569336 47.55354690551758
v 63.6365852355957 58.99650955200195 27.1421012878418
v 63.40420913696289 58.99650955200195 26.90972709655762
v 63.96521377563477 59.32513809204102 26.81347274780273
v 63.73283767700195 59.32513809204102 26.58109855651855
v 63.96521377563477 59.32513809204102 26.81347274780273
v 63.73283767700195 59.32513809204102 26.58109855651855
v 63.96521377563477 52.33432388305664 26.81347274780273
v 63.73283767700195 52.33432388305664 26.58109855651855
v 63.96521377563477 52.33432388305664 26.81347274780273
v 63.6365852355957 52.33432388305664 27.1421012878418
v 63.6365852355957 48.83891296386719 27.1421012878418
v 63.6365852355957 45.343505859375 27.1421012878418
v 63.96521377563477 45.343505859375 26.81347274780273
v 63.96521377563477 38.35268783569336 26.81347274780273
v 63.6365852355957 38.35268783569336 27.1421012878418
v 53.31467437744141 38.35268783569336 37.46401214599609
v 53.31467437744141 38.0240592956543 37.46401214599609
v 42.66413497924805 38.0240592956543 48.11455154418945
v 42.99276351928711 38.35268783569336 47.78592300415039
v 63.6365852355957 58.99650955200195 27.1421012878418
v 63.96521377563477 59.32513809204102 26.81347274780273
v 63.73283767700195 52.33432388305664 26.58109855651855
v 63.40420913696289 52.33432388305664 26.90972709655762
v 63.40420913696289 48.83891296386719 26.90972709655762
v 63.40420913696289 45.343505859375 26.90972709655762
v 63.73283767700195 45.343505859375 26.58109855651855
v 63.73283767700195 38.35268783569336 26.58109855651855
v 63.40420913696289 38.35268783569336 26.90972709655762
v 53.08229827880859 38.35268783569336 37.23163604736328
v 53.08229827880859 38.0240592956543 37.23163604736328
v 42.43175888061523 38.0240592956543 47.88217544555664
v 42.7603874206543 38.35268783569336 47.55354690551758
v 63.40420913696289 58.99650955200195 26.90972709655762
v 63.73283767700195 59.32513809204102 26.58109855651855
vt 0 0
vt 0 0.5047519207000732
vt 0.07692307978868484 0
vt 0.07692307978868484 0.5047519207000732
vt 0.07692307978868484 0
vt 0.07692307978868484 0.5047519207000732
vt 0.1538461595773697 0
vt 0.1538461595773697 0.5047519207000732
vt 0.2307692319154739 0
vt 0.2307692319154739 0.5047519207000732
vt 0.2307692319154739 0
vt 0.2307692319154739 0.5047519207000732
vt 0.3076923191547394 0
vt 0.3076923191547394 0.5047519207000732
vt 0.3076923191547394 0
vt 0.3076923191547394 0.5047519207000732
vt 0.3846153914928436 0
vt 0.3846153914928436 0.5047519207000732
vt 0.3846153914928436 0
vt 0.3846153914928436 0.5047519207000732
vt 0.4615384638309479 0
vt 0.4615384638309479 0.5047519207000732
vt 0.5384615659713745 0
vt 0.5384615659713745 0.5047519207000732
vt 0.5384615659713745 0
vt 0.5384615659713745 0.5047519207000732
vt 0.6153846383094788 0
vt 0.6153846383094788 0.5047519207000732
vt 0.6153846383094788 0
vt 0.6153846383094788 0.5047519207000732
vt 0.692307710647583 0
vt 0.692307710647583 0.5047519207000732
vt 0.692307710647583 0
vt 0.692307710647583 0.5047519207000732
vt 0.7692307829856873 0
vt 0.7692307829856873 0.5047519207000732
vt 0.8461538553237915 0
vt 0.8461538553237915 0.5047519207000732
vt 0.9230769276618958 0
vt 0.9230769276618958 0.5047519207000732
vt 0.9230769276618958 0
vt 0.9230769276618958 0.5047519207000732
vt 1 0
vt 1 0.5047519207000732
vt 0.3681637942790985 0.8349174857139587
vt 0.363912045955658 0.8426777720451355
vt 0.3413003981113434 0.7601365447044373
vt 0.3186887800693512 0.6775952577590942
vt 0.3229405283927917 0.6698349714279175
vt 0.277717262506485 0.5047524571418762
vt 0.2734655141830444 0.512512743473053
vt 0.1399215757846832 0.7562563419342041
vt 0.1377956867218018 0.7484960556030273
vt 0 1
vt 0.006377646699547768 1
vt 0.4070094227790833 1
vt 0.4133870601654053 1
vt 0.3681637942790985 0.6698349714279175
vt 0.363912045955658 0.6620746850967407
vt 0.3413003981113434 0.744615912437439
vt 0.3186887800693512 0.827157199382782
vt 0.3229405283927917 0.8349174857139587
vt 0.277717262506485 1
vt 0.2734655141830444 0.9922397136688232
vt 0.1399215757846832 0.7484960556030273
vt 0.1377956867218018 0.7562563419342041
vt 0 0.5047524571418762
vt 0.006377646699547768 0.5047524571418762
vt 0.4070094227790833 0.5047524571418762
vt 0.4133870601654053 0.5047524571418762
vn -4.684064768001317e-12 -1 8.61894269062885e-13
vn -4.684064768001317e-12 -1 8.61894269062885e-13
vn -4.684064768001317e-12 -1 8.61894269062885e-13
vn -4.684064768001317e-12 -1 8.61894269062885e-13
vn 0.7071067690849304 -1.974940827195737e-12 -0.7071067690849304
vn 0.7071067690849304 -1.974940827195737e-12 -0.7071067690849304
vn 0.7071067690849304 -2.161232347600017e-12 -0.7071067690849304
vn 0.7071067690849304 -2.161232347600017e-12 -0.7071067690849304
vn 0.7071067690849304 -2.161232347600017e-12 -0.7071067690849304
vn 0.7071067690849304 -2.161232347600017e-12 -0.7071067690849304
vn 5.954426621906928e-12 1 -2.13225596033817e-12
vn 5.954426621906928e-12 1 -2.13225596033817e-12
vn 5.954426621906928e-12 1 -2.13225596033817e-12
vn 5.954426621906928e-12 1 -2.13225596033817e-12
vn 0.7071067690849304 -2.114522099083693e-12 -0.7071067690849304
vn 0.7071067690849304 -2.114522099083693e-12 -0.7071067690849304
vn 0.7071067690849304 -2.114522099083693e-12 -0.7071067690849304
vn 0.7071067690849304 -2.114522099083693e-12 -0.7071067690849304
vn -1.993122680787884e-12 -1 -1.829047980780873e-12
vn -1.993122680787884e-12 -1 -1.829047980780873e-12
vn -1.904216151080163e-12 -1 -1.917954510488595e-12
vn -1.904216151080163e-12 -1 -1.917954510488595e-12
vn -1.904216151080163e-12 -1 -1.917954510488595e-12
vn -1.904216151080163e-12 -1 -1.917954510488595e-12
vn 0.7071067690849304 -2.663583329592933e-12 -0.7071067690849304
vn 0.7071067690849304 -2.663583329592933e-12 -0.7071067690849304
vn 0.7071067690849304 -2.663583329592933e-12 -0.7071067690849304
vn 0.7071067690849304 -2.663583329592933e-12 -0.7071067690849304
vn -1.784653588104979e-12 -1 -2.037517073463779e-12
vn -1.784653588104979e-12 -1 -2.037517073463779e-12
vn -1.784653588104979e-12 -1 -2.037517073463779e-12
vn -1.784653588104979e-12 -1 -2.037517073463779e-12
vn -0.4082483053207397 0.8164966106414795 0.4082483053207397
vn -0.4082483053207397 0.8164966106414795 0.4082483053207397
vn -0.4082483053207397 0.8164966106414795 0.4082483053207397
vn -0.4082483053207397 0.8164966106414795 0.4082483053207397
vn -0.4082483053207397 0.8164966106414795 0.4082483053207397
vn -0.4082483053207397 0.8164966106414795 0.4082483053207397
vn -0.4082483053207397 0.8164966106414795 0.4082483053207397
vn -0.4082483053207397 0.8164966106414795 0.4082483053207397
vn 0.7071067690849304 5.872930722468361e-13 -0.7071067690849304
vn 0.7071067690849304 5.872930722468361e-13 -0.7071067690849304
vn 0.7071067690849304 5.872930722468361e-13 -0.7071067690849304
vn 0.7071067690849304 5.872930722468361e-13 -0.7071067690849304
vn 0.7071067690849304 -2.702682695698844e-12 0.7071067690849304
vn 0.7071067690849304 -2.702682695698844e-12 0.7071067690849304
vn 0.7071067690849304 -2.702682695698844e-12 0.7071067690849304
vn 0.7071067690849304 -2.702682695698844e-12 0.7071067690849304
vn 0.7071067690849304 -2.702682695698844e-12 0.7071067690849304
vn 0.7071067690849304 -2.702682695698844e-12 0.7071067690849304
vn 0.7071067690849304 -2.702682695698844e-12 0.7071067690849304
vn 0.7071067690849304 -2.702682695698844e-12 0.7071067690849304
vn 0.7071067690849304 -2.702682695698844e-12 0.7071067690849304
vn 0.7071067690849304 -2.702682695698844e-12 0.7071067690849304
vn 0.7071067690849304 -2.702682695698844e-12 0.7071067690849304
vn 0.7071067690849304 -2.702682695698844e-12 0.7071067690849304
vn 0.7071067690849304 -2.702682695698844e-12 0.7071067690849304
vn -0.7071067690849304 2.702682695698844e-12 -0.7071067690849304
vn -0.7071067690849304 2.702682695698844e-12 -0.7071067690849304
vn -0.7071067690849304 2.702682695698844e-12 -0.7071067690849304
vn -0.7071067690849304 2.702682695698844e-12 -0.7071067690849304
vn -0.7071067690849304 2.702682695698844e-12 -0.7071067690849304
vn -0.7071067690849304 2.702682695698844e-12 -0.7071067690849304
vn -0.7071067690849304 2.702682695698844e-12 -0.7071067690849304
vn -0.7071067690849304 2.702682695698844e-12 -0.7071067690849304
vn -0.7071067690849304 2.702682695698844e-12 -0.7071067690849304
vn -0.7071067690849304 2.702682695698844e-12 -0.7071067690849304
vn -0.7071067690849304 2.702682695698844e-12 -0.7071067690849304
vn -0.7071067690849304 2.702682695698844e-12 -0.7071067690849304
vn -0.7071067690849304 2.702682695698844e-12 -0.7071067690849304
f 1/1/1 3/3/3 4/4/4 2/2/2
f 5/5/5 7/7/7 8/8/8 6/6/6
f 7/7/7 9/9/9 10/10/10 8/8/8
f 11/11/11 13/13/13 14/14/14 12/12/12
f 15/15/15 17/17/17 18/18/18 16/16/16
f 19/19/19 21/21/21 22/22/22 20/20/20
f 21/21/21 23/23/23 24/24/24 22/22/22
f 25/25/25 27/27/27 28/28/28 26/26/26
f 29/29/29 31/31/31 32/32/32 30/30/30
f 33/33/33 35/35/35 36/36/36 34/34/34
f 35/35/35 37/37/37 38/38/38 36/36/36
f 37/37/37 39/39/39 40/40/40 38/38/38
f 41/41/41 43/43/43 44/44/44 42/42/42
f 45/45/45 57/57/57 56/56/56
f 46/46/46 45/45/45 56/56/56
f 46/46/46 56/56/56 52/52/52
f 55/55/55 52/52/52 56/56/56
f 53/53/53 55/55/55 54/54/54
f 51/51/51 49/49/49 48/48/48
f 52/52/52 48/48/48 47/47/47
f 55/55/55 53/53/53 52/52/52
f 49/49/49 51/51/51 50/50/50
f 51/51/51 48/48/48 52/52/52
f 46/46/46 52/52/52 47/47/47
f 58/58/58 69/69/69 70/70/70
f 59/59/59 69/69/69 58/58/58
f 59/59/59 65/65/65 69/69/69
f 68/68/68 69/69/69 65/65/65
f 66/66/66 67/67/67 68/68/68
f 64/64/64 61/61/61 62/62/62
f 65/65/65 60/60/60 61/61/61
f 68/68/68 65/65/65 66/66/66
f 62/62/62 63/63/63 64/64/64
f 64/64/64 65/65/65 61/61/61
f 59/59/59 60/60/60 65/65/65
