# Rhino

g object_1
v 27.98178291320801 2.369257926940918 26.81347274780273
v 28.31041145324707 2.369257926940918 26.81347274780273
v 27.98178291320801 2.369257926940918 14.3678617477417
v 28.31041145324707 2.369257926940918 14.3678617477417
v 27.98178291320801 2.369257926940918 14.3678617477417
v 28.31041145324707 2.369257926940918 14.3678617477417
v 27.98178291320801 2.697886228561401 14.3678617477417
v 28.31041145324707 2.697886228561401 14.3678617477417
v 27.98178291320801 2.697886228561401 14.3678617477417
v 28.31041145324707 2.697886228561401 14.3678617477417
v 27.98178291320801 2.697886228561401 2.15462589263916
v 28.31041145324707 2.697886228561401 2.15462589263916
v 27.98178291320801 2.697886228561401 2.15462589263916
v 28.31041145324707 2.697886228561401 2.15462589263916
v 27.98178291320801 23.67033576965332 2.15462589263916
v 28.31041145324707 23.67033576965332 2.15462589263916
v 27.98178291320801 23.67033576965332 2.15462589263916
v 28.31041145324707 23.67033576965332 2.15462589263916
v 27.98178291320801 23.67033576965332 47.64979934692383
v 28.31041145324707 23.67033576965332 47.64979934692383
v 27.98178291320801 23.67033576965332 47.64979934692383
v 28.31041145324707 23.67033576965332 47.64979934692383
v 27.98178291320801 13.25217247009277 37.23163604736328
v 28.31041145324707 13.25217247009277 37.23163604736328
v 27.98178291320801 13.25217247009277 37.23163604736328
v 28.31041145324707 13.25217247009277 37.23163604736328
v 27.98178291320801 13.01979732513428 37.46401214599609
v 28.31041145324707 13.01979732513428 37.46401214599609
v 27.98178291320801 13.01979732513428 37.46401214599609
v 28.31041145324707 13.01979732513428 37.46401214599609
v 27.98178291320801 2.369257926940918 26.81347274780273
v 28.31041145324707 2.369257926940918 26.81347274780273
v 27.98178291320801 2.369257926940918 26.81347274780273
v 27.98178291320801 2.369257926940918 14.3678617477417
v 27.98178291320801 2.697886228561401 14.3678617477417
v 27.98178291320801 2.697886228561401 2.15462589263916
v 27.98178291320801 23.67033576965332 2.15462589263916
v 27.98178291320801 23.67033576965332 47.64979934692383
v 27.98178291320801 13.25217247009277 37.23163604736328
v 27.98178291320801 13.01979732513428 37.46401214599609
v 28.31041145324707 2.369257926940918 26.81347274780273
v 28.31041145324707 2.369257926940918 14.3678617477417
v 28.31041145324707 2.697886228561401 14.3678617477417
v 28.31041145324707 2.697886228561401 2.15462589263916
v 28.31041145324707 23.67033576965332 2.15462589263916
v 28.31041145324707 23.67033576965332 47.64979934692383
v 28.31041145324707 13.25217247009277 37.23163604736328
v 28.31041145324707 13.01979732513428 37.46401214599609
vt 0 0
vt 0 0.5038271546363831
vt 0.4953594505786896 0
vt 0.4953594505786896 0.5038271546363831
vt 0.4953594505786896 0
vt 0.4953594505786896 0.5038271546363831
vt 0.5084394812583923 0
vt 0.5084394812583923 0.5038271546363831
vt 0.5084394812583923 0
vt 0.5084394812583923 0.5038271546363831
vt 0.9945499897003174 0
vt 0.9945499897003174 0.5038271546363831
vt 0.9945499897003174 0
vt 0.9945499897003174 0.5038271546363831
vt 0.995639979839325 0
vt 0.995639979839325 0.5038271546363831
vt 0.995639979839325 0
vt 0.995639979839325 0.5038271546363831
vt 0.9967299699783325 0
vt 0.9967299699783325 0.5038271546363831
vt 0.9967299699783325 0
vt 0.9967299699783325 0.5038271546363831
vt 0.9978200197219849 0
vt 0.9978200197219849 0.5038271546363831
vt 0.9978200197219849 0
vt 0.9978200197219849 0.5038271546363831
vt 0.9989100098609924 0
vt 0.9989100098609924 0.5038271546363831
vt 0.9989100098609924 0
vt 0.9989100098609924 0.5038271546363831
vt 1 0
vt 1 0.5038271546363831
vt 0.2028209716081619 0.503827691078186
vt 0.1004548370838165 0.503827691078186
vt 0.1004548370838165 0.5114825367927551
vt 0 0.5114825367927551
vt 1.245929222423378e-13 1
vt 0.3742014169692993 1
vt 0.28851118683815 0.757326602935791
vt 0.2904224991798401 0.751913845539093
vt 0.2028209716081619 1
vt 0.1004548370838165 1
vt 0.1004548370838165 0.9923451542854309
vt 0 0.9923451542854309
vt 1.245929222423378e-13 0.503827691078186
vt 0.3742014169692993 0.503827691078186
vt 0.28851118683815 0.7465010285377502
vt 0.2904224991798401 0.751913845539093
vn -1.136478064434066e-12 -1 7.220686722153591e-13
vn -1.136478064434066e-12 -1 7.220686722153591e-13
vn -1.136478064434066e-12 -1 7.220686722153591e-13
vn -1.136478064434066e-12 -1 7.220686722153591e-13
vn -9.926214090644966e-25 -8.734189044755369e-13 -1
vn -9.926214090644966e-25 -8.734189044755369e-13 -1
vn -9.926214090644966e-25 -8.734189044755369e-13 -1
vn -9.926214090644966e-25 -8.734189044755369e-13 -1
vn -1.136478064434066e-12 -1 1.999930304913758e-13
vn -1.136478064434066e-12 -1 1.999930304913758e-13
vn -1.136478064434066e-12 -1 1.999930304913758e-13
vn -1.136478064434066e-12 -1 1.999930304913758e-13
vn 9.048921056539558e-29 7.962248670533332e-17 -1
vn 9.048921056539558e-29 7.962248670533332e-17 -1
vn 9.048921056539558e-29 7.962248670533332e-17 -1
vn 9.048921056539558e-29 7.962248670533332e-17 -1
vn 1.136478064434066e-12 1 -2.136797818763983e-14
vn 1.136478064434066e-12 1 -2.136797818763983e-14
vn 1.136478064434066e-12 1 -2.136797818763983e-14
vn 1.136478064434066e-12 1 -2.136797818763983e-14
vn -8.03611354977668e-13 -0.7071067690849304 0.7071067690849304
vn -8.03611354977668e-13 -0.7071067690849304 0.7071067690849304
vn -8.03611354977668e-13 -0.7071067690849304 0.7071067690849304
vn -8.03611354977668e-13 -0.7071067690849304 0.7071067690849304
vn 8.03611354977668e-13 0.7071067690849304 0.7071067690849304
vn 8.03611354977668e-13 0.7071067690849304 0.7071067690849304
vn 8.03611354977668e-13 0.7071067690849304 0.7071067690849304
vn 8.03611354977668e-13 0.7071067690849304 0.7071067690849304
vn -8.03611354977668e-13 -0.7071067690849304 0.7071067690849304
vn -8.03611354977668e-13 -0.7071067690849304 0.7071067690849304
vn -8.03611354977668e-13 -0.7071067690849304 0.7071067690849304
vn -8.03611354977668e-13 -0.7071067690849304 0.7071067690849304
vn -1 1.136478064434066e-12 0
vn -1 1.136478064434066e-12 0
vn -1 1.136478064434066e-12 0
vn -1 1.136478064434066e-12 0
vn -1 1.136478064434066e-12 0
vn -1 1.136478064434066e-12 0
vn -1 1.136478064434066e-12 0
vn -1 1.136478064434066e-12 0
vn 1 -1.136478064434066e-12 0
vn 1 -1.136478064434066e-12 0
vn 1 -1.136478064434066e-12 0
vn 1 -1.136478064434066e-12 0
vn 1 -1.136478064434066e-12 0
vn 1 -1.136478064434066e-12 0
vn 1 -1.136478064434066e-12 0
vn 1 -1.136478064434066e-12 0
f 1/1/1 3/3/3 4/4/4 2/2/2
f 5/5/5 7/7/7 8/8/8 6/6/6
f 9/9/9 11/11/11 12/12/12 10/10/10
f 13/13/13 15/15/15 16/16/16 14/14/14
f 17/17/17 19/19/19 20/20/20 18/18/18
f 21/21/21 23/23/23 24/24/24 22/22/22
f 25/25/25 27/27/27 28/28/28 26/26/26
f 29/29/29 31/31/31 32/32/32 30/30/30
f 39/39/39 37/37/37 35/35/35
f 38/38/38 37/37/37 39/39/39
f 33/33/33 40/40/40 39/39/39
f 35/35/35 34/34/34 33/33/33
f 37/37/37 36/36/36 35/35/35
f 39/39/39 35/35/35 33/33/33
f 47/47/47 43/43/43 45/45/45
f 46/46/46 47/47/47 45/45/45
f 41/41/41 47/47/47 48/48/48
f 43/43/43 41/41/41 42/42/42
f 45/45/45 43/43/43 44/44/44
f 47/47/47 41/41/41 43/43/43
