# Rhino

g object_1
v 63.6365852355957 29.47972106933594 4.022330760955811
v 63.6365852355957 29.47972106933594 4.15925931930542
v 42.66413497924805 29.47972106933594 4.022330760955811
v 42.66413497924805 29.47972106933594 4.15925931930542
v 42.66413497924805 29.47972106933594 4.022330760955811
v 42.66413497924805 29.47972106933594 4.15925931930542
v 63.6365852355957 8.507271766662598 4.022330760955811
v 63.6365852355957 8.507271766662598 4.15925931930542
v 63.6365852355957 8.507271766662598 4.022330760955811
v 63.6365852355957 8.507271766662598 4.15925931930542
v 63.6365852355957 29.47972106933594 4.022330760955811
v 63.6365852355957 29.47972106933594 4.15925931930542
v 63.6365852355957 29.47972106933594 4.022330760955811
v 42.66413497924805 29.47972106933594 4.022330760955811
v 63.6365852355957 8.507271766662598 4.022330760955811
v 63.6365852355957 29.47972106933594 4.15925931930542
v 42.66413497924805 29.47972106933594 4.15925931930542
v 63.6365852355957 8.507271766662598 4.15925931930542
vt 0 0
vt 0 0.5016266703605652
vt 0.2928932309150696 0
vt 0.2928932309150696 0.5016266703605652
vt 0.2928932309150696 0
vt 0.2928932309150696 0.5016266703605652
vt 0.7071067690849304 0
vt 0.7071067690849304 0.5016266703605652
vt 0.7071067690849304 0
vt 0.7071067690849304 0.5016266703605652
vt 1 0
vt 1 0.5016266703605652
vt 0.2928932309150696 1
vt 0.2928932309150696 0.5016272068023682
vt 0 1
vt 0.2928932309150696 0.5016272068023682
vt 0.2928932309150696 1
vt 0 0.5016272068023682
vn 1.088754195306685e-12 1 -7.005353870777331e-13
vn 1.088754195306685e-12 1 -7.005353870777331e-13
vn 1.088754195306685e-12 1 -7.005353870777331e-13
vn 1.088754195306685e-12 1 -7.005353870777331e-13
vn -0.7071067690849304 -0.7071067690849304 4.953533243312602e-13
vn -0.7071067690849304 -0.7071067690849304 4.953533243312602e-13
vn -0.7071067690849304 -0.7071067690849304 4.953533243312602e-13
vn -0.7071067690849304 -0.7071067690849304 4.953533243312602e-13
vn 1 -3.48936347481163e-13 2.444422332890554e-25
vn 1 -3.48936347481163e-13 2.444422332890554e-25
vn 1 -3.48936347481163e-13 2.444422332890554e-25
vn 1 -3.48936347481163e-13 2.444422332890554e-25
vn 0 -7.005353870777331e-13 -1
vn 0 -7.005353870777331e-13 -1
vn 0 -7.005353870777331e-13 -1
vn 0 7.005353870777331e-13 1
vn 0 7.005353870777331e-13 1
vn 0 7.005353870777331e-13 1
f 1/1/1 3/3/3 4/4/4 2/2/2
f 5/5/5 7/7/7 8/8/8 6/6/6
f 9/9/9 11/11/11 12/12/12 10/10/10
f 14/14/14 13/13/13 15/15/15
f 17/17/17 18/18/18 16/16/16
