# Rhino

g object_1
v 63.96521377563477 38.35268783569336 26.81347274780273
v 63.96521377563477 38.0240592956543 26.81347274780273
v 53.31467437744141 38.35268783569336 37.46401214599609
v 53.31467437744141 38.0240592956543 37.46401214599609
v 53.31467437744141 38.35268783569336 37.46401214599609
v 53.31467437744141 38.0240592956543 37.46401214599609
v 53.08229827880859 38.35268783569336 37.23163604736328
v 53.08229827880859 38.0240592956543 37.23163604736328
v 53.08229827880859 38.35268783569336 37.23163604736328
v 53.08229827880859 38.0240592956543 37.23163604736328
v 42.66413497924805 38.35268783569336 47.64979934692383
v 42.66413497924805 38.0240592956543 47.64979934692383
v 42.66413497924805 38.35268783569336 47.64979934692383
v 42.66413497924805 38.0240592956543 47.64979934692383
v 42.66413497924805 38.35268783569336 2.15462589263916
v 42.66413497924805 38.0240592956543 2.15462589263916
v 42.66413497924805 38.35268783569336 2.15462589263916
v 42.66413497924805 38.0240592956543 2.15462589263916
v 63.6365852355957 38.35268783569336 2.15462589263916
v 63.6365852355957 38.0240592956543 2.15462589263916
v 63.6365852355957 38.35268783569336 2.15462589263916
v 63.6365852355957 38.0240592956543 2.15462589263916
v 63.6365852355957 38.35268783569336 14.3678617477417
v 63.6365852355957 38.0240592956543 14.3678617477417
v 63.6365852355957 38.35268783569336 14.3678617477417
v 63.6365852355957 38.0240592956543 14.3678617477417
v 63.96521377563477 38.35268783569336 14.3678617477417
v 63.96521377563477 38.0240592956543 14.3678617477417
v 63.96521377563477 38.35268783569336 14.3678617477417
v 63.96521377563477 38.0240592956543 14.3678617477417
v 63.96521377563477 38.35268783569336 26.81347274780273
v 63.96521377563477 38.0240592956543 26.81347274780273
v 63.96521377563477 38.35268783569336 26.81347274780273
v 53.31467437744141 38.35268783569336 37.46401214599609
v 53.08229827880859 38.35268783569336 37.23163604736328
v 42.66413497924805 38.35268783569336 47.64979934692383
v 42.66413497924805 38.35268783569336 2.15462589263916
v 63.6365852355957 38.35268783569336 2.15462589263916
v 63.6365852355957 38.35268783569336 14.3678617477417
v 63.96521377563477 38.35268783569336 14.3678617477417
v 63.96521377563477 38.0240592956543 26.81347274780273
v 53.31467437744141 38.0240592956543 37.46401214599609
v 53.08229827880859 38.0240592956543 37.23163604736328
v 42.66413497924805 38.0240592956543 47.64979934692383
v 42.66413497924805 38.0240592956543 2.15462589263916
v 63.6365852355957 38.0240592956543 2.15462589263916
v 63.6365852355957 38.0240592956543 14.3678617477417
v 63.96521377563477 38.0240592956543 14.3678617477417
vt 0 0
vt 0 0.5038271546363831
vt 0.001090004108846188 0
vt 0.001090004108846188 0.5038271546363831
vt 0.001090004108846188 0
vt 0.001090004108846188 0.5038271546363831
vt 0.002180008217692375 0
vt 0.002180008217692375 0.5038271546363831
vt 0.002180008217692375 0
vt 0.002180008217692375 0.5038271546363831
vt 0.003270012326538563 0
vt 0.003270012326538563 0.5038271546363831
vt 0.003270012326538563 0
vt 0.003270012326538563 0.5038271546363831
vt 0.00436001643538475 0
vt 0.00436001643538475 0.5038271546363831
vt 0.00436001643538475 0
vt 0.00436001643538475 0.5038271546363831
vt 0.005450020544230938 0
vt 0.005450020544230938 0.5038271546363831
vt 0.005450020544230938 0
vt 0.005450020544230938 0.5038271546363831
vt 0.4915604889392853 0
vt 0.4915604889392853 0.5038271546363831
vt 0.4915604889392853 0
vt 0.4915604889392853 0.5038271546363831
vt 0.504640519618988 0
vt 0.504640519618988 0.5038271546363831
vt 0.504640519618988 0
vt 0.504640519618988 0.5038271546363831
vt 1 0
vt 1 0.5038271546363831
vt 0.2028209716081619 1
vt 0.2904224991798401 0.751913845539093
vt 0.28851118683815 0.7465010285377502
vt 0.3742014169692993 0.503827691078186
vt 1.245929222423378e-13 0.503827691078186
vt 0 0.9923451542854309
vt 0.1004548370838165 0.9923451542854309
vt 0.1004548370838165 1
vt 0.2028209716081619 0.503827691078186
vt 0.2904224991798401 0.751913845539093
vt 0.28851118683815 0.757326602935791
vt 0.3742014169692993 1
vt 1.245929222423378e-13 1
vt 0 0.5114825367927551
vt 0.1004548370838165 0.5114825367927551
vt 0.1004548370838165 0.503827691078186
vn 0.7071067690849304 8.561662121452096e-13 0.7071067690849304
vn 0.7071067690849304 8.561662121452096e-13 0.7071067690849304
vn 0.7071067690849304 8.561662121452096e-13 0.7071067690849304
vn 0.7071067690849304 8.561662121452096e-13 0.7071067690849304
vn -0.7071067690849304 -8.561662121452096e-13 0.7071067690849304
vn -0.7071067690849304 -8.561662121452096e-13 0.7071067690849304
vn -0.7071067690849304 -8.561662121452096e-13 0.7071067690849304
vn -0.7071067690849304 -8.561662121452096e-13 0.7071067690849304
vn 0.7071067690849304 8.561662121452096e-13 0.7071067690849304
vn 0.7071067690849304 8.561662121452096e-13 0.7071067690849304
vn 0.7071067690849304 8.561662121452096e-13 0.7071067690849304
vn 0.7071067690849304 8.561662121452096e-13 0.7071067690849304
vn -1 -1.210801858081423e-12 1.422769345914288e-12
vn -1 -1.210801858081423e-12 1.422769345914288e-12
vn -1 -1.210801858081423e-12 1.422769345914288e-12
vn -1 -1.210801858081423e-12 1.422769345914288e-12
vn -1.444216924870179e-12 -1.748660474424817e-24 -1
vn -1.444216924870179e-12 -1.748660474424817e-24 -1
vn -1.444216924870179e-12 -1.748660474424817e-24 -1
vn -1.444216924870179e-12 -1.748660474424817e-24 -1
vn 1 1.210801858081423e-12 -1.244144219071652e-12
vn 1 1.210801858081423e-12 -1.244144219071652e-12
vn 1 1.210801858081423e-12 -1.244144219071652e-12
vn 1 1.210801858081423e-12 -1.244144219071652e-12
vn -5.707184399551812e-13 -6.910269180973743e-25 -1
vn -5.707184399551812e-13 -6.910269180973743e-25 -1
vn -5.707184399551812e-13 -6.910269180973743e-25 -1
vn -5.707184399551812e-13 -6.910269180973743e-25 -1
vn 1 1.210801858081423e-12 -7.220686722153591e-13
vn 1 1.210801858081423e-12 -7.220686722153591e-13
vn 1 1.210801858081423e-12 -7.220686722153591e-13
vn 1 1.210801858081423e-12 -7.220686722153591e-13
vn -1.210801858081423e-12 1 0
vn -1.210801858081423e-12 1 0
vn -1.210801858081423e-12 1 0
vn -1.210801858081423e-12 1 0
vn -1.210801858081423e-12 1 0
vn -1.210801858081423e-12 1 0
vn -1.210801858081423e-12 1 0
vn -1.210801858081423e-12 1 0
vn 1.210801858081423e-12 -1 0
vn 1.210801858081423e-12 -1 0
vn 1.210801858081423e-12 -1 0
vn 1.210801858081423e-12 -1 0
vn 1.210801858081423e-12 -1 0
vn 1.210801858081423e-12 -1 0
vn 1.210801858081423e-12 -1 0
vn 1.210801858081423e-12 -1 0
f 1/1/1 3/3/3 4/4/4 2/2/2
f 5/5/5 7/7/7 8/8/8 6/6/6
f 9/9/9 11/11/11 12/12/12 10/10/10
f 13/13/13 15/15/15 16/16/16 14/14/14
f 17/17/17 19/19/19 20/20/20 18/18/18
f 21/21/21 23/23/23 24/24/24 22/22/22
f 25/25/25 27/27/27 28/28/28 26/26/26
f 29/29/29 31/31/31 32/32/32 30/30/30
f 39/39/39 33/33/33 40/40/40
f 37/37/37 39/39/39 38/38/38
f 39/39/39 35/35/35 33/33/33
f 35/35/35 39/39/39 37/37/37
f 36/36/36 35/35/35 37/37/37
f 34/34/34 33/33/33 35/35/35
f 47/47/47 48/48/48 41/41/41
f 45/45/45 46/46/46 47/47/47
f 47/47/47 41/41/41 43/43/43
f 43/43/43 45/45/45 47/47/47
f 44/44/44 45/45/45 43/43/43
f 42/42/42 43/43/43 41/41/41
