# Rhino

g object_1
v 27.98178291320801 2.697886228561401 3.025491237640381
v 27.98178291320801 2.697886228561401 3.16241979598999
v 27.98178291320801 23.67033576965332 3.025491237640381
v 27.98178291320801 23.67033576965332 3.16241979598999
v 27.98178291320801 23.67033576965332 3.025491237640381
v 27.98178291320801 23.67033576965332 3.16241979598999
v 7.00933313369751 2.697886228561401 3.025491237640381
v 7.00933313369751 2.697886228561401 3.16241979598999
v 7.00933313369751 2.697886228561401 3.025491237640381
v 7.00933313369751 2.697886228561401 3.16241979598999
v 27.98178291320801 2.697886228561401 3.025491237640381
v 27.98178291320801 2.697886228561401 3.16241979598999
v 27.98178291320801 2.697886228561401 3.025491237640381
v 27.98178291320801 23.67033576965332 3.025491237640381
v 7.00933313369751 2.697886228561401 3.025491237640381
v 27.98178291320801 2.697886228561401 3.16241979598999
v 27.98178291320801 23.67033576965332 3.16241979598999
v 7.00933313369751 2.697886228561401 3.16241979598999
vt 0 0
vt 0 0.5016266703605652
vt 0.2928932309150696 0
vt 0.2928932309150696 0.5016266703605652
vt 0.2928932309150696 0
vt 0.2928932309150696 0.5016266703605652
vt 0.7071067690849304 0
vt 0.7071067690849304 0.5016266703605652
vt 0.7071067690849304 0
vt 0.7071067690849304 0.5016266703605652
vt 1 0
vt 1 0.5016266703605652
vt 0.2928932309150696 1
vt 0.2928932309150696 0.5016272068023682
vt 0 1
vt 0.2928932309150696 0.5016272068023682
vt 0.2928932309150696 1
vt 0 0.5016272068023682
vn 1 -1.173686256690509e-12 8.374348182447693e-25
vn 1 -1.173686256690509e-12 8.374348182447693e-25
vn 1 -1.173686256690509e-12 8.374348182447693e-25
vn 1 -1.173686256690509e-12 8.374348182447693e-25
vn -0.7071067690849304 0.7071067690849304 -5.045265420722256e-13
vn -0.7071067690849304 0.7071067690849304 -5.045265420722256e-13
vn -0.7071067690849304 0.7071067690849304 -5.045265420722256e-13
vn -0.7071067690849304 0.7071067690849304 -5.045265420722256e-13
vn -4.338684088649875e-13 -1 7.135082455422825e-13
vn -4.338684088649875e-13 -1 7.135082455422825e-13
vn -4.338684088649875e-13 -1 7.135082455422825e-13
vn -4.338684088649875e-13 -1 7.135082455422825e-13
vn 0 -7.135082455422825e-13 -1
vn 0 -7.135082455422825e-13 -1
vn 0 -7.135082455422825e-13 -1
vn 0 7.135082455422825e-13 1
vn 0 7.135082455422825e-13 1
vn 0 7.135082455422825e-13 1
f 1/1/1 3/3/3 4/4/4 2/2/2
f 5/5/5 7/7/7 8/8/8 6/6/6
f 9/9/9 11/11/11 12/12/12 10/10/10
f 14/14/14 13/13/13 15/15/15
f 17/17/17 18/18/18 16/16/16
