# Rhino

g object_1
v 1.199948191642761 38.0240592956543 2.15462589263916
v 0.8713197708129883 38.0240592956543 2.15462589263916
v 1.199948191642761 38.0240592956543 14.3678617477417
v 0.8713197708129883 38.0240592956543 14.3678617477417
v 1.199948191642761 38.0240592956543 14.3678617477417
v 0.8713197708129883 38.0240592956543 14.3678617477417
v 1.199948191642761 38.35268783569336 14.3678617477417
v 0.8713197708129883 38.35268783569336 14.3678617477417
v 1.199948191642761 38.35268783569336 14.3678617477417
v 0.8713197708129883 38.35268783569336 14.3678617477417
v 1.199948191642761 38.35268783569336 26.58109855651855
v 0.8713197708129883 38.35268783569336 26.58109855651855
v 1.199948191642761 38.35268783569336 26.58109855651855
v 0.8713197708129883 38.35268783569336 26.58109855651855
v 1.199948191642761 45.343505859375 26.58109855651855
v 0.8713197708129883 45.343505859375 26.58109855651855
v 1.199948191642761 45.343505859375 26.58109855651855
v 0.8713197708129883 45.343505859375 26.58109855651855
v 1.199948191642761 45.343505859375 27.1421012878418
v 0.8713197708129883 45.343505859375 27.1421012878418
v 1.199948191642761 45.343505859375 27.1421012878418
v 0.8713197708129883 45.343505859375 27.1421012878418
v 1.199948191642761 52.33432388305664 27.1421012878418
v 0.8713197708129883 52.33432388305664 27.1421012878418
v 1.199948191642761 52.33432388305664 27.1421012878418
v 0.8713197708129883 52.33432388305664 27.1421012878418
v 1.199948191642761 52.33432388305664 26.81347274780273
v 0.8713197708129883 52.33432388305664 26.81347274780273
v 1.199948191642761 52.33432388305664 26.58109855651855
v 0.8713197708129883 52.33432388305664 26.58109855651855
v 1.199948191642761 52.33432388305664 26.58109855651855
v 0.8713197708129883 52.33432388305664 26.58109855651855
v 1.199948191642761 59.32513809204102 26.58109855651855
v 0.8713197708129883 59.32513809204102 26.58109855651855
v 1.199948191642761 59.32513809204102 26.58109855651855
v 0.8713197708129883 59.32513809204102 26.58109855651855
v 1.199948191642761 59.32513809204102 2.15462589263916
v 0.8713197708129883 59.32513809204102 2.15462589263916
v 1.199948191642761 59.32513809204102 2.15462589263916
v 0.8713197708129883 59.32513809204102 2.15462589263916
v 1.199948191642761 38.35268783569336 2.15462589263916
v 0.8713197708129883 38.35268783569336 2.15462589263916
v 1.199948191642761 38.0240592956543 2.15462589263916
v 0.8713197708129883 38.0240592956543 2.15462589263916
v 1.199948191642761 38.0240592956543 2.15462589263916
v 1.199948191642761 38.0240592956543 14.3678617477417
v 1.199948191642761 38.35268783569336 14.3678617477417
v 1.199948191642761 38.35268783569336 26.58109855651855
v 1.199948191642761 45.343505859375 26.58109855651855
v 1.199948191642761 45.343505859375 27.1421012878418
v 1.199948191642761 52.33432388305664 27.1421012878418
v 1.199948191642761 52.33432388305664 26.81347274780273
v 1.199948191642761 52.33432388305664 26.58109855651855
v 1.199948191642761 59.32513809204102 26.58109855651855
v 1.199948191642761 59.32513809204102 2.15462589263916
v 1.199948191642761 38.35268783569336 2.15462589263916
v 0.8713197708129883 38.0240592956543 2.15462589263916
v 0.8713197708129883 38.0240592956543 14.3678617477417
v 0.8713197708129883 38.35268783569336 14.3678617477417
v 0.8713197708129883 38.35268783569336 26.58109855651855
v 0.8713197708129883 45.343505859375 26.58109855651855
v 0.8713197708129883 45.343505859375 27.1421012878418
v 0.8713197708129883 52.33432388305664 27.1421012878418
v 0.8713197708129883 52.33432388305664 26.81347274780273
v 0.8713197708129883 52.33432388305664 26.58109855651855
v 0.8713197708129883 59.32513809204102 26.58109855651855
v 0.8713197708129883 59.32513809204102 2.15462589263916
v 0.8713197708129883 38.35268783569336 2.15462589263916
vt 0 0
vt 0 0.5038271546363831
vt 0.488498717546463 0
vt 0.488498717546463 0.5038271546363831
vt 0.488498717546463 0
vt 0.488498717546463 0.5038271546363831
vt 0.5016430616378784 0
vt 0.5016430616378784 0.5038271546363831
vt 0.5016430616378784 0
vt 0.5016430616378784 0.5038271546363831
vt 0.990141749382019 0
vt 0.990141749382019 0.5038271546363831
vt 0.990141749382019 0
vt 0.990141749382019 0.5038271546363831
vt 0.9912371039390564 0
vt 0.9912371039390564 0.5038271546363831
vt 0.9912371039390564 0
vt 0.9912371039390564 0.5038271546363831
vt 0.9923324584960938 0
vt 0.9923324584960938 0.5038271546363831
vt 0.9923324584960938 0
vt 0.9923324584960938 0.5038271546363831
vt 0.9934278726577759 0
vt 0.9934278726577759 0.5038271546363831
vt 0.9934278726577759 0
vt 0.9934278726577759 0.5038271546363831
vt 0.9945232272148132 0
vt 0.9945232272148132 0.5038271546363831
vt 0.9956185817718506 0
vt 0.9956185817718506 0.5038271546363831
vt 0.9956185817718506 0
vt 0.9956185817718506 0.5038271546363831
vt 0.9967139363288879 0
vt 0.9967139363288879 0.5038271546363831
vt 0.9967139363288879 0
vt 0.9967139363288879 0.5038271546363831
vt 0.9978092908859253 0
vt 0.9978092908859253 0.5038271546363831
vt 0.9978092908859253 0
vt 0.9978092908859253 0.5038271546363831
vt 0.9989046454429626 0
vt 0.9989046454429626 0.5038271546363831
vt 1 0
vt 1 0.5038271546363831
vt 0.2699098885059357 0.503827691078186
vt 0.1379848718643188 0.503827691078186
vt 0.1379848718643188 0.5114825367927551
vt 0.006059854757040739 0.5114825367927551
vt 0.006059854757040739 0.6743216514587402
vt 0 0.6743216514587402
vt 0 0.8371608257293701
vt 0.003549780696630478 0.8371608257293701
vt 0.006059854757040739 0.8371608257293701
vt 0.006059854757040739 1
vt 0.2699098885059357 1
vt 0.2699098885059357 0.5114825367927551
vt 0.2699098885059357 1
vt 0.1379848718643188 1
vt 0.1379848718643188 0.9923451542854309
vt 0.006059854757040739 0.9923451542854309
vt 0.006059854757040739 0.829505980014801
vt 0 0.829505980014801
vt 0 0.6666668057441711
vt 0.003549780696630478 0.6666668057441711
vt 0.006059854757040739 0.6666668057441711
vt 0.006059854757040739 0.503827691078186
vt 0.2699098885059357 0.503827691078186
vt 0.2699098885059357 0.9923451542854309
vn 5.40536528297747e-13 -1 0
vn 5.40536528297747e-13 -1 0
vn 5.40536528297747e-13 -1 0
vn 5.40536528297747e-13 -1 0
vn 0 0 1
vn 0 0 1
vn 0 0 1
vn 0 0 1
vn 5.40536528297747e-13 -1 -5.294205964465407e-14
vn 5.40536528297747e-13 -1 -5.294205964465407e-14
vn 5.40536528297747e-13 -1 -5.294205964465407e-14
vn 5.40536528297747e-13 -1 -5.294205964465407e-14
vn 0 0 1
vn 0 0 1
vn 0 0 1
vn 0 0 1
vn 5.40536528297747e-13 -1 0
vn 5.40536528297747e-13 -1 0
vn 5.40536528297747e-13 -1 0
vn 5.40536528297747e-13 -1 0
vn 0 0 1
vn 0 0 1
vn 0 0 1
vn 0 0 1
vn -5.40536528297747e-13 1 0
vn -5.40536528297747e-13 1 0
vn -5.40536528297747e-13 1 0
vn -5.40536528297747e-13 1 0
vn -5.40536528297747e-13 1 0
vn -5.40536528297747e-13 1 0
vn -2.464051657402782e-25 4.558529118417476e-13 1
vn -2.464051657402782e-25 4.558529118417476e-13 1
vn -2.464051657402782e-25 4.558529118417476e-13 1
vn -2.464051657402782e-25 4.558529118417476e-13 1
vn -5.40536528297747e-13 1 1.658075464579765e-14
vn -5.40536528297747e-13 1 1.658075464579765e-14
vn -5.40536528297747e-13 1 1.658075464579765e-14
vn -5.40536528297747e-13 1 1.658075464579765e-14
vn 0 0 -1
vn 0 0 -1
vn 0 0 -1
vn 0 0 -1
vn 0 0 -1
vn 0 0 -1
vn 1 5.40536528297747e-13 0
vn 1 5.40536528297747e-13 0
vn 1 5.40536528297747e-13 0
vn 1 5.40536528297747e-13 0
vn 1 5.40536528297747e-13 0
vn 1 5.40536528297747e-13 0
vn 1 5.40536528297747e-13 0
vn 1 5.40536528297747e-13 0
vn 1 5.40536528297747e-13 0
vn 1 5.40536528297747e-13 0
vn 1 5.40536528297747e-13 0
vn 1 5.40536528297747e-13 0
vn -1 -5.40536528297747e-13 0
vn -1 -5.40536528297747e-13 0
vn -1 -5.40536528297747e-13 0
vn -1 -5.40536528297747e-13 0
vn -1 -5.40536528297747e-13 0
vn -1 -5.40536528297747e-13 0
vn -1 -5.40536528297747e-13 0
vn -1 -5.40536528297747e-13 0
vn -1 -5.40536528297747e-13 0
vn -1 -5.40536528297747e-13 0
vn -1 -5.40536528297747e-13 0
vn -1 -5.40536528297747e-13 0
f 1/1/1 3/3/3 4/4/4 2/2/2
f 5/5/5 7/7/7 8/8/8 6/6/6
f 9/9/9 11/11/11 12/12/12 10/10/10
f 13/13/13 15/15/15 16/16/16 14/14/14
f 17/17/17 19/19/19 20/20/20 18/18/18
f 21/21/21 23/23/23 24/24/24 22/22/22
f 25/25/25 27/27/27 28/28/28 26/26/26
f 27/27/27 29/29/29 30/30/30 28/28/28
f 31/31/31 33/33/33 34/34/34 32/32/32
f 35/35/35 37/37/37 38/38/38 36/36/36
f 39/39/39 41/41/41 42/42/42 40/40/40
f 41/41/41 43/43/43 44/44/44 42/42/42
f 50/50/50 52/52/52 51/51/51
f 49/49/49 53/53/53 52/52/52
f 52/52/52 50/50/50 49/49/49
f 47/47/47 49/49/49 48/48/48
f 49/49/49 47/47/47 53/53/53
f 47/47/47 55/55/55 53/53/53
f 56/56/56 55/55/55 47/47/47
f 46/46/46 45/45/45 47/47/47
f 56/56/56 47/47/47 45/45/45
f 55/55/55 54/54/54 53/53/53
f 62/62/62 63/63/63 64/64/64
f 61/61/61 64/64/64 65/65/65
f 64/64/64 61/61/61 62/62/62
f 59/59/59 60/60/60 61/61/61
f 61/61/61 65/65/65 59/59/59
f 59/59/59 65/65/65 67/67/67
f 68/68/68 59/59/59 67/67/67
f 58/58/58 59/59/59 57/57/57
f 68/68/68 57/57/57 59/59/59
f 67/67/67 65/65/65 66/66/66
