# Rhino

g object_1
v 63.6365852355957 38.35268783569336 5.725721836090088
v 63.6365852355957 38.35268783569336 5.862649917602539
v 63.6365852355957 59.32513809204102 5.725721836090088
v 63.6365852355957 59.32513809204102 5.862649917602539
v 63.6365852355957 59.32513809204102 5.725721836090088
v 63.6365852355957 59.32513809204102 5.862649917602539
v 42.66413497924805 38.35268783569336 5.725721836090088
v 42.66413497924805 38.35268783569336 5.862649917602539
v 42.66413497924805 38.35268783569336 5.725721836090088
v 42.66413497924805 38.35268783569336 5.862649917602539
v 63.6365852355957 38.35268783569336 5.725721836090088
v 63.6365852355957 38.35268783569336 5.862649917602539
v 63.6365852355957 38.35268783569336 5.725721836090088
v 63.6365852355957 59.32513809204102 5.725721836090088
v 42.66413497924805 38.35268783569336 5.725721836090088
v 63.6365852355957 38.35268783569336 5.862649917602539
v 63.6365852355957 59.32513809204102 5.862649917602539
v 42.66413497924805 38.35268783569336 5.862649917602539
vt 0 0
vt 0 0.5016266703605652
vt 0.2928932309150696 0
vt 0.2928932309150696 0.5016266703605652
vt 0.2928932309150696 0
vt 0.2928932309150696 0.5016266703605652
vt 0.7071067690849304 0
vt 0.7071067690849304 0.5016266703605652
vt 0.7071067690849304 0
vt 0.7071067690849304 0.5016266703605652
vt 1 0
vt 1 0.5016266703605652
vt 3.437647573285157e-13 1
vt 0.2928932309150696 1
vt 0 0.5016272068023682
vt 3.437647573285157e-13 0.5016272068023682
vt 0.2928932309150696 0.5016272068023682
vt 0 1
vn 1 5.188004431437576e-13 -3.768987338971643e-25
vn 1 5.188004431437576e-13 -3.768987338971643e-25
vn 1 5.188004431437576e-13 -3.768987338971643e-25
vn 1 5.188004431437576e-13 -3.768987338971643e-25
vn -0.7071067690849304 0.7071067690849304 -5.136997056030823e-13
vn -0.7071067690849304 0.7071067690849304 -5.136997056030823e-13
vn -0.7071067690849304 0.7071067690849304 -5.136997056030823e-13
vn -0.7071067690849304 0.7071067690849304 -5.136997056030823e-13
vn 1.258618318074334e-12 -1 7.26481104006832e-13
vn 1.258618318074334e-12 -1 7.26481104006832e-13
vn 1.258618318074334e-12 -1 7.26481104006832e-13
vn 1.258618318074334e-12 -1 7.26481104006832e-13
vn 0 -7.26481104006832e-13 -1
vn 0 -7.26481104006832e-13 -1
vn 0 -7.26481104006832e-13 -1
vn 0 7.26481104006832e-13 1
vn 0 7.26481104006832e-13 1
vn 0 7.26481104006832e-13 1
f 1/1/1 3/3/3 4/4/4 2/2/2
f 5/5/5 7/7/7 8/8/8 6/6/6
f 9/9/9 11/11/11 12/12/12 10/10/10
f 14/14/14 13/13/13 15/15/15
f 17/17/17 18/18/18 16/16/16
