# Rhino

g object_1
v 28.31041145324707 65.134521484375 2.15462589263916
v 28.31041145324707 65.46315002441406 2.15462589263916
v 27.98178291320801 65.134521484375 2.15462589263916
v 27.98178291320801 65.46315002441406 2.15462589263916
v 7.00933313369751 65.134521484375 2.15462589263916
v 7.00933313369751 65.46315002441406 2.15462589263916
v 7.00933313369751 65.134521484375 2.15462589263916
v 7.00933313369751 65.46315002441406 2.15462589263916
v 7.00933313369751 65.134521484375 26.58109855651855
v 7.00933313369751 65.46315002441406 26.58109855651855
v 7.00933313369751 65.134521484375 26.58109855651855
v 7.00933313369751 65.46315002441406 26.58109855651855
v 14.00014972686768 65.134521484375 26.58109855651855
v 14.00014972686768 65.46315002441406 26.58109855651855
v 14.00014972686768 65.134521484375 26.58109855651855
v 14.00014972686768 65.46315002441406 26.58109855651855
v 14.00014972686768 65.134521484375 26.81347274780273
v 14.00014972686768 65.46315002441406 26.81347274780273
v 14.00014972686768 65.134521484375 27.1421012878418
v 14.00014972686768 65.46315002441406 27.1421012878418
v 14.00014972686768 65.134521484375 27.1421012878418
v 14.00014972686768 65.46315002441406 27.1421012878418
v 20.990966796875 65.134521484375 27.1421012878418
v 20.990966796875 65.46315002441406 27.1421012878418
v 20.990966796875 65.134521484375 27.1421012878418
v 20.990966796875 65.46315002441406 27.1421012878418
v 20.990966796875 65.134521484375 26.58109855651855
v 20.990966796875 65.46315002441406 26.58109855651855
v 20.990966796875 65.134521484375 26.58109855651855
v 20.990966796875 65.46315002441406 26.58109855651855
v 27.98178291320801 65.134521484375 26.58109855651855
v 27.98178291320801 65.46315002441406 26.58109855651855
v 27.98178291320801 65.134521484375 26.58109855651855
v 27.98178291320801 65.46315002441406 26.58109855651855
v 27.98178291320801 65.134521484375 14.3678617477417
v 27.98178291320801 65.46315002441406 14.3678617477417
v 27.98178291320801 65.134521484375 14.3678617477417
v 27.98178291320801 65.46315002441406 14.3678617477417
v 28.31041145324707 65.134521484375 14.3678617477417
v 28.31041145324707 65.46315002441406 14.3678617477417
v 28.31041145324707 65.134521484375 14.3678617477417
v 28.31041145324707 65.46315002441406 14.3678617477417
v 28.31041145324707 65.134521484375 2.15462589263916
v 28.31041145324707 65.46315002441406 2.15462589263916
v 28.31041145324707 65.134521484375 2.15462589263916
v 27.98178291320801 65.134521484375 2.15462589263916
v 7.00933313369751 65.134521484375 2.15462589263916
v 7.00933313369751 65.134521484375 26.58109855651855
v 14.00014972686768 65.134521484375 26.58109855651855
v 14.00014972686768 65.134521484375 26.81347274780273
v 14.00014972686768 65.134521484375 27.1421012878418
v 20.990966796875 65.134521484375 27.1421012878418
v 20.990966796875 65.134521484375 26.58109855651855
v 27.98178291320801 65.134521484375 26.58109855651855
v 27.98178291320801 65.134521484375 14.3678617477417
v 28.31041145324707 65.134521484375 14.3678617477417
v 28.31041145324707 65.46315002441406 2.15462589263916
v 27.98178291320801 65.46315002441406 2.15462589263916
v 7.00933313369751 65.46315002441406 2.15462589263916
v 7.00933313369751 65.46315002441406 26.58109855651855
v 14.00014972686768 65.46315002441406 26.58109855651855
v 14.00014972686768 65.46315002441406 26.81347274780273
v 14.00014972686768 65.46315002441406 27.1421012878418
v 20.990966796875 65.46315002441406 27.1421012878418
v 20.990966796875 65.46315002441406 26.58109855651855
v 27.98178291320801 65.46315002441406 26.58109855651855
v 27.98178291320801 65.46315002441406 14.3678617477417
v 28.31041145324707 65.46315002441406 14.3678617477417
vt 0 0
vt 0 0.5038271546363831
vt 0.001095359213650227 0
vt 0.001095359213650227 0.5038271546363831
vt 0.002190718427300453 0
vt 0.002190718427300453 0.5038271546363831
vt 0.002190718427300453 0
vt 0.002190718427300453 0.5038271546363831
vt 0.003286077873781323 0
vt 0.003286077873781323 0.5038271546363831
vt 0.003286077873781323 0
vt 0.003286077873781323 0.5038271546363831
vt 0.004381436854600906 0
vt 0.004381436854600906 0.5038271546363831
vt 0.004381436854600906 0
vt 0.004381436854600906 0.5038271546363831
vt 0.005476796068251133 0
vt 0.005476796068251133 0.5038271546363831
vt 0.006572155747562647 0
vt 0.006572155747562647 0.5038271546363831
vt 0.006572155747562647 0
vt 0.006572155747562647 0.5038271546363831
vt 0.007667514961212873 0
vt 0.007667514961212873 0.5038271546363831
vt 0.007667514961212873 0
vt 0.007667514961212873 0.5038271546363831
vt 0.008762873709201813 0
vt 0.008762873709201813 0.5038271546363831
vt 0.008762873709201813 0
vt 0.008762873709201813 0.5038271546363831
vt 0.009858232922852039 0
vt 0.009858232922852039 0.5038271546363831
vt 0.009858232922852039 0
vt 0.009858232922852039 0.5038271546363831
vt 0.498356968164444 0
vt 0.498356968164444 0.5038271546363831
vt 0.498356968164444 0
vt 0.498356968164444 0.5038271546363831
vt 0.5115012526512146 0
vt 0.5115012526512146 0.5038271546363831
vt 0.5115012526512146 0
vt 0.5115012526512146 0.5038271546363831
vt 1 0
vt 1 0.5038271546363831
vt 0 0.503827691078186
vt 0 0.5114825367927551
vt 0 1
vt 0.2638500332832336 1
vt 0.2638500332832336 0.8371608257293701
vt 0.2663601040840149 0.8371608257293701
vt 0.2699098885059357 0.8371608257293701
vt 0.2699098885059357 0.6743216514587402
vt 0.2638500332832336 0.6743216514587402
vt 0.2638500332832336 0.5114825367927551
vt 0.1319250166416168 0.5114825367927551
vt 0.1319250166416168 0.503827691078186
vt 0 1
vt 0 0.9923451542854309
vt 0 0.503827691078186
vt 0.2638500332832336 0.503827691078186
vt 0.2638500332832336 0.6666668057441711
vt 0.2663601040840149 0.6666668057441711
vt 0.2699098885059357 0.6666668057441711
vt 0.2699098885059357 0.829505980014801
vt 0.2638500332832336 0.829505980014801
vt 0.2638500332832336 0.9923451542854309
vt 0.1319250166416168 0.9923451542854309
vt 0.1319250166416168 1
vn 0 0 -1
vn 0 0 -1
vn 0 0 -1
vn 0 0 -1
vn 0 0 -1
vn 0 0 -1
vn -1 4.540506967805336e-13 1.658075464579765e-14
vn -1 4.540506967805336e-13 1.658075464579765e-14
vn -1 4.540506967805336e-13 1.658075464579765e-14
vn -1 4.540506967805336e-13 1.658075464579765e-14
vn -4.558529118417476e-13 2.069803382357576e-25 1
vn -4.558529118417476e-13 2.069803382357576e-25 1
vn -4.558529118417476e-13 2.069803382357576e-25 1
vn -4.558529118417476e-13 2.069803382357576e-25 1
vn -1 4.540506967805336e-13 0
vn -1 4.540506967805336e-13 0
vn -1 4.540506967805336e-13 0
vn -1 4.540506967805336e-13 0
vn -1 4.540506967805336e-13 0
vn -1 4.540506967805336e-13 0
vn 0 0 1
vn 0 0 1
vn 0 0 1
vn 0 0 1
vn 1 -4.540506967805336e-13 0
vn 1 -4.540506967805336e-13 0
vn 1 -4.540506967805336e-13 0
vn 1 -4.540506967805336e-13 0
vn 0 0 1
vn 0 0 1
vn 0 0 1
vn 0 0 1
vn 1 -4.540506967805336e-13 -5.294205964465407e-14
vn 1 -4.540506967805336e-13 -5.294205964465407e-14
vn 1 -4.540506967805336e-13 -5.294205964465407e-14
vn 1 -4.540506967805336e-13 -5.294205964465407e-14
vn 0 0 1
vn 0 0 1
vn 0 0 1
vn 0 0 1
vn 1 -4.540506967805336e-13 0
vn 1 -4.540506967805336e-13 0
vn 1 -4.540506967805336e-13 0
vn 1 -4.540506967805336e-13 0
vn -4.540506967805336e-13 -1 0
vn -4.540506967805336e-13 -1 0
vn -4.540506967805336e-13 -1 0
vn -4.540506967805336e-13 -1 0
vn -4.540506967805336e-13 -1 0
vn -4.540506967805336e-13 -1 0
vn -4.540506967805336e-13 -1 0
vn -4.540506967805336e-13 -1 0
vn -4.540506967805336e-13 -1 0
vn -4.540506967805336e-13 -1 0
vn -4.540506967805336e-13 -1 0
vn -4.540506967805336e-13 -1 0
vn 4.540506967805336e-13 1 0
vn 4.540506967805336e-13 1 0
vn 4.540506967805336e-13 1 0
vn 4.540506967805336e-13 1 0
vn 4.540506967805336e-13 1 0
vn 4.540506967805336e-13 1 0
vn 4.540506967805336e-13 1 0
vn 4.540506967805336e-13 1 0
vn 4.540506967805336e-13 1 0
vn 4.540506967805336e-13 1 0
vn 4.540506967805336e-13 1 0
vn 4.540506967805336e-13 1 0
f 1/1/1 3/3/3 4/4/4 2/2/2
f 3/3/3 5/5/5 6/6/6 4/4/4
f 7/7/7 9/9/9 10/10/10 8/8/8
f 11/11/11 13/13/13 14/14/14 12/12/12
f 15/15/15 17/17/17 18/18/18 16/16/16
f 17/17/17 19/19/19 20/20/20 18/18/18
f 21/21/21 23/23/23 24/24/24 22/22/22
f 25/25/25 27/27/27 28/28/28 26/26/26
f 29/29/29 31/31/31 32/32/32 30/30/30
f 33/33/33 35/35/35 36/36/36 34/34/34
f 37/37/37 39/39/39 40/40/40 38/38/38
f 41/41/41 43/43/43 44/44/44 42/42/42
f 55/55/55 47/47/47 46/46/46
f 47/47/47 55/55/55 49/49/49
f 56/56/56 55/55/55 45/45/45
f 46/46/46 45/45/45 55/55/55
f 48/48/48 47/47/47 49/49/49
f 53/53/53 50/50/50 49/49/49
f 52/52/52 51/51/51 50/50/50
f 50/50/50 53/53/53 52/52/52
f 55/55/55 54/54/54 53/53/53
f 55/55/55 53/53/53 49/49/49
f 67/67/67 58/58/58 59/59/59
f 59/59/59 61/61/61 67/67/67
f 68/68/68 57/57/57 67/67/67
f 58/58/58 67/67/67 57/57/57
f 60/60/60 61/61/61 59/59/59
f 65/65/65 61/61/61 62/62/62
f 64/64/64 62/62/62 63/63/63
f 62/62/62 64/64/64 65/65/65
f 67/67/67 65/65/65 66/66/66
f 67/67/67 61/61/61 65/65/65
